<?xml version="1.0" encoding="utf-8"?>
<!-- Svg Vector Icons : http://www.onlinewebfonts.com/icon -->
<!DOCTYPE svg PUBLIC "-//W3C//DTD SVG 1.1//EN" "http://www.w3.org/Graphics/SVG/1.1/DTD/svg11.dtd">
<svg version="1.1" xmlns="http://www.w3.org/2000/svg" xmlns:xlink="http://www.w3.org/1999/xlink" x="0px" y="0px" viewBox="0 0 1000 1000" enable-background="new 0 0 1000 1000" xml:space="preserve">
<metadata> Svg Vector Icons : http://www.onlinewebfonts.com/icon </metadata>
<g><g transform="translate(0.000000,511.000000) scale(0.100000,-0.100000)"><path d="M6257.7,4892.9c-333.3-34.8-727.9-145.2-1053-298.5c-200.4-94.1-580.7-337.4-734.1-472.3l-90-77.7l186.1-67.5c956.9-341.5,1764.6-1098,2124.5-1985.4c204.5-509.1,259.7-805.6,261.7-1400.6c0-390.5-6.1-480.5-47-685c-141.1-697.3-470.3-1349.5-1065.3-2110.2c-102.2-130.9-186.1-245.4-186.1-253.6c0-6.1,53.2-73.6,118.6-149.3c198.3-224.9,437.6-529.6,625.7-793.3c116.5-165.6,190.2-251.5,214.7-251.5c24.5,0,77.7,59.3,147.2,157.5c269.9,394.6,609.3,811.7,1185.9,1457.9c705.4,793.3,946.7,1087.8,1237.1,1523.3c427.4,642,646.1,1230.9,705.4,1899.5c26.6,296.5,4.1,627.7-63.4,934.4C9467.9,3962.5,7934.4,5066.7,6257.7,4892.9z"/><path d="M3159.9,3870.5c-1004-63.4-1930.2-595-2496.6-1439.5C84.7,1576.3-54.4,541.7,274.8-458.1c231.1-705.4,625.7-1308.6,1507-2302.4c885.4-999.9,1085.7-1241.1,1394.5-1672.6c100.2-137,190.2-251.5,202.4-255.6c30.7-10.2,42.9,4.1,259.7,312.8c237.2,333.3,523.4,680.9,1051,1273.9c584.8,660.4,809.7,926.2,1018.3,1202.3c441.7,588.9,717.7,1120.5,854.7,1652.1C6959,1271.7,6255.7,2831.8,4855,3535.2c-353.7,179.9-813.8,308.8-1169.6,329.2c-104.3,4.1-214.7,12.3-249.5,14.3C3403.3,3882.8,3278.5,3878.7,3159.9,3870.5z M3707.9,2122.3c94.1-18.4,241.3-71.6,361.9-130.9C4487,1791,4789.6,1414.8,4898,965c190.2-793.3-263.8-1592.8-1053-1848.4c-212.6-69.5-545.9-87.9-760.6-42.9C2908.4-887.5,2730.6-818,2571.1-726c-149.3,90-423.3,364-513.2,513.2c-300.6,515.3-300.6,1112.3,0,1627.6c90,149.3,364,423.3,513.2,513.2C2922.8,2134.5,3317.4,2202,3707.9,2122.3z"/></g></g>
</svg>